<svg width="544" height="592" viewBox="0 0 544 592" fill="none" xmlns="http://www.w3.org/2000/svg">
<g filter="url(#filter0_d_90_45)">
<circle cx="272" cy="280" r="268" fill="#006D57"/>
<g filter="url(#filter1_d_90_45)">
<path d="M82.0786 414C72.4458 414 69.3018 409.585 72.6465 400.755L170.981 142.475C175.129 131.638 181.417 126.22 189.846 126.22H217.941C226.37 126.22 232.658 131.638 236.806 142.475L335.141 400.755C338.485 409.585 335.341 414 325.708 414H293.8C284.97 414 278.815 409.384 275.337 400.153L254.867 346.169H152.92L132.45 400.153C128.972 409.384 122.817 414 113.987 414H82.0786ZM171.583 296.399H236.204L211.52 232.582C208.576 225.09 206.77 219.671 206.101 216.327C205.566 212.848 204.964 207.764 204.295 201.075H203.492C202.823 207.764 202.154 212.848 201.485 216.327C200.95 219.671 199.211 225.09 196.268 232.582L171.583 296.399ZM251.91 414C242.545 414 237.862 408.983 237.862 398.949V141.271C237.862 131.237 242.545 126.22 251.91 126.22H321.949C383.492 126.22 425.1 138.662 446.774 163.547C468.582 188.432 479.485 223.819 479.485 269.708C479.485 315.598 468.582 351.119 446.774 376.271C425.1 401.424 383.492 414 321.949 414H251.91ZM296.462 364.23H318.136C359.61 364.23 386.435 356.538 398.61 341.152C410.785 325.632 416.872 301.818 416.872 269.708C416.872 237.599 410.785 213.918 398.61 198.667C386.435 183.281 359.61 175.588 318.136 175.588H296.462V364.23Z" fill="white"/>
</g>
</g>
<defs>
<filter id="filter0_d_90_45" x="0" y="12" width="544" height="544" filterUnits="userSpaceOnUse" color-interpolation-filters="sRGB">
<feFlood flood-opacity="0" result="BackgroundImageFix"/>
<feColorMatrix in="SourceAlpha" type="matrix" values="0 0 0 0 0 0 0 0 0 0 0 0 0 0 0 0 0 0 127 0" result="hardAlpha"/>
<feOffset dy="4"/>
<feGaussianBlur stdDeviation="2"/>
<feComposite in2="hardAlpha" operator="out"/>
<feColorMatrix type="matrix" values="0 0 0 0 0 0 0 0 0 0 0 0 0 0 0 0 0 0 0.25 0"/>
<feBlend mode="normal" in2="BackgroundImageFix" result="effect1_dropShadow_90_45"/>
<feBlend mode="normal" in="SourceGraphic" in2="effect1_dropShadow_90_45" result="shape"/>
</filter>
<filter id="filter1_d_90_45" x="63.6294" y="126.22" width="419.856" height="295.78" filterUnits="userSpaceOnUse" color-interpolation-filters="sRGB">
<feFlood flood-opacity="0" result="BackgroundImageFix"/>
<feColorMatrix in="SourceAlpha" type="matrix" values="0 0 0 0 0 0 0 0 0 0 0 0 0 0 0 0 0 0 127 0" result="hardAlpha"/>
<feOffset dy="4"/>
<feGaussianBlur stdDeviation="2"/>
<feComposite in2="hardAlpha" operator="out"/>
<feColorMatrix type="matrix" values="0 0 0 0 0 0 0 0 0 0 0 0 0 0 0 0 0 0 0.25 0"/>
<feBlend mode="normal" in2="BackgroundImageFix" result="effect1_dropShadow_90_45"/>
<feBlend mode="normal" in="SourceGraphic" in2="effect1_dropShadow_90_45" result="shape"/>
</filter>
</defs>
</svg>
