<svg width="435" height="431" viewBox="0 0 435 431" fill="none" xmlns="http://www.w3.org/2000/svg">
<g filter="url(#filter0_dd_87_40)">
<rect x="4" width="427" height="423" rx="200" fill="#006D57" shape-rendering="crispEdges"/>
<path d="M92.5199 333H21.5682L101.507 90.8182H191.379L271.318 333H200.366L147.389 157.513H145.497L92.5199 333ZM79.2756 237.452H212.665V286.645H79.2756V237.452ZM284.827 333H191.644V90.8182H283.881C308.793 90.8182 330.315 95.6665 348.447 105.363C366.658 114.981 380.69 128.856 390.545 146.988C400.478 165.042 405.445 186.682 405.445 211.909C405.445 237.136 400.517 258.816 390.663 276.948C380.809 295.001 366.855 308.876 348.802 318.573C330.748 328.191 309.423 333 284.827 333ZM257.392 277.185H282.462C294.445 277.185 304.654 275.253 313.089 271.39C321.603 267.527 328.068 260.866 332.483 251.406C336.976 241.945 339.223 228.78 339.223 211.909C339.223 195.038 336.937 181.873 332.364 172.413C327.871 162.952 321.249 156.291 312.498 152.428C303.826 148.565 293.183 146.634 280.57 146.634H257.392V277.185Z" fill="white"/>
</g>
<defs>
<filter id="filter0_dd_87_40" x="0" y="0" width="435" height="431" filterUnits="userSpaceOnUse" color-interpolation-filters="sRGB">
<feFlood flood-opacity="0" result="BackgroundImageFix"/>
<feColorMatrix in="SourceAlpha" type="matrix" values="0 0 0 0 0 0 0 0 0 0 0 0 0 0 0 0 0 0 127 0" result="hardAlpha"/>
<feOffset dy="4"/>
<feGaussianBlur stdDeviation="2"/>
<feComposite in2="hardAlpha" operator="out"/>
<feColorMatrix type="matrix" values="0 0 0 0 0 0 0 0 0 0 0 0 0 0 0 0 0 0 0.25 0"/>
<feBlend mode="normal" in2="BackgroundImageFix" result="effect1_dropShadow_87_40"/>
<feColorMatrix in="SourceAlpha" type="matrix" values="0 0 0 0 0 0 0 0 0 0 0 0 0 0 0 0 0 0 127 0" result="hardAlpha"/>
<feOffset dy="4"/>
<feGaussianBlur stdDeviation="2"/>
<feComposite in2="hardAlpha" operator="out"/>
<feColorMatrix type="matrix" values="0 0 0 0 0 0 0 0 0 0 0 0 0 0 0 0 0 0 0.25 0"/>
<feBlend mode="normal" in2="effect1_dropShadow_87_40" result="effect2_dropShadow_87_40"/>
<feBlend mode="normal" in="SourceGraphic" in2="effect2_dropShadow_87_40" result="shape"/>
</filter>
</defs>
</svg>
